<svg xmlns="http://www.w3.org/2000/svg" width="99" height="45" viewBox="0 0 99 45" fill="none"><path d="M0 18.3C0 8.2 8.2 0 18.3 0C28.4 0 36.6 8.2 36.6 18.3C36.6 28.4 28.4 36.6 18.3 36.6C8.2 36.5 0 28.3 0 18.3Z" fill="white"></path><path d="M23.7 7.40002L19.2 20.9L21.2999 27C22.0999 24.6 24.5999 17.3 24.7999 16.9C24.7999 21.1 24.7999 29.3 24.7999 29.3H29.4V7.40002H23.7Z" fill="#262626"></path><path d="M12.9999 7.40002H7.3999V29.3H11.9999C11.9999 29.3 11.9999 21.1 11.9999 16.9C12.1999 17.5 16.2999 29.3 16.2999 29.3H20.3999L12.9999 7.40002Z" fill="#262626"></path><path d="M69.4 40.9C68.4 41.5 68 41.7 67.4 41.9C67 42 66.6 42.1 66.2 42.1C65.2 42.1 64.4 41.6 63.9 40.9C63.7 40.5 63.6 40.2 63.6 39.4C63.8 39.4 70.6 39.4 70.6 39.4V38.2C70.6 35.3 68.8 33.4 66.1 33.4C63 33.4 60.7 35.9 60.7 39.2C60.7 42.4 62.7 44.5 65.9 44.5C67.1 44.5 68.3 44.3 69.4 43.8C69.6 43.7 70 43.5 70.5 43.2H70.6L69.4 40.9ZM65.9 35.4C67.1 35.4 67.6 36 67.7 37.5H63.8C64 36.2 64.7 35.4 65.9 35.4ZM51.4 40.1L47.8 29.5H44V44.1H46.8C46.8 44.1 46.8 37.7 46.8 34.9C47 35.3 50.1 44.1 50.1 44.1H52.9C54 40.9 56 35.3 56.2 35C56.2 36 56.2 44.1 56.2 44.1H59V29.5H55L51.4 40.1ZM78 41C77.2 41.5 76.8 41.7 76.5 41.7C76.2 41.7 76 41.5 76 40.3C76 40.3 76 35.9 76 35.8C76.1 35.8 78.3 35.8 78.3 35.8V33.7C78.3 33.7 76.2 33.7 76 33.7V30.5C76 30.3 75.9 30.1 75.9 30.1L73.3 30.5C73.3 30.5 73.3 33.6 73.3 33.7C73.2 33.7 71.7 34 71.7 34V35.8C71.7 35.8 73.1 35.8 73.3 35.8C73.3 36 73.3 42.2 73.3 42.2C73.3 43.8 74 44.5 75.4 44.5C76.1 44.5 77 44.3 77.8 43.8L78.1 43.6L78.8 43.2V43.1L78 41ZM85.6 33.4C84.8 33.4 84.2 34 83.2 35.6C83.2 35.2 83.1 33.5 83.1 33.5H80.6V44.1H83.5V39.2C83.5 38.4 83.7 37.9 84.2 37.3C84.6 36.8 85.1 36.5 85.5 36.5C85.8 36.5 86 36.6 86.3 36.8L86.4 36.9L87.3 34.2C86.6 33.7 86.1 33.4 85.6 33.4ZM93.2 33.3C90.1 33.3 87.8 35.7 87.8 38.8C87.8 42 90.1 44.4 93.2 44.4C96.3 44.4 98.6 42 98.6 38.8C98.6 35.7 96.3 33.3 93.2 33.3ZM93.2 42.1C91.9 42.1 90.8 40.6 90.8 38.8C90.8 37 91.9 35.5 93.2 35.5C94.5 35.5 95.6 37 95.6 38.8C95.6 40.6 94.5 42.1 93.2 42.1Z" fill="white"></path></svg>